<?xml version="1.0" encoding="UTF-8"?> <svg version="1.1" xmlns="http://www.w3.org/2000/svg" width="512" height="512"> <path d="M0 0 C1.02754395 0.23605957 2.05508789 0.47211914 3.11376953 0.71533203 C39.07358876 9.30250364 71.49258689 26.39567695 99 51 C99.56235352 51.50063965 100.12470703 52.0012793 100.70410156 52.51708984 C107.21081017 58.33590469 113.49322063 64.20637324 119 71 C119.89958842 72.07564728 120.79934383 73.1511549 121.69921875 74.2265625 C148.7967781 106.96006084 166.75968946 147.54182563 171 190 C171.16435547 191.44439453 171.16435547 191.44439453 171.33203125 192.91796875 C176.55084675 246.70656052 161.52810991 304.5869146 127.47265625 347.0078125 C126.24869141 348.48894531 126.24869141 348.48894531 125 350 C123.76056641 351.54300781 123.76056641 351.54300781 122.49609375 353.1171875 C111.67016745 366.42490634 99.51444637 378.59010317 85.68261719 388.75732422 C84.03422918 389.97472047 82.41121934 391.22061277 80.7890625 392.47265625 C57.47499913 410.14447142 20.08575833 430 -10 430 C-10 440.56 -10 451.12 -10 462 C-1.23507541 461.84281712 -1.23507541 461.84281712 7.52880859 461.63964844 C16.2214698 461.56155179 23.46706226 462.41142429 30.4375 467.9296875 C30.953125 468.57164062 31.46875 469.21359375 32 469.875 C32.53625 470.51179688 33.0725 471.14859375 33.625 471.8046875 C37.73130072 478.3607699 37.33380062 485.22802294 37.3125 492.6875 C37.32861328 493.82767578 37.34472656 494.96785156 37.36132812 496.14257812 C37.36197266 497.23376953 37.36261719 498.32496094 37.36328125 499.44921875 C37.36775269 500.93941528 37.36775269 500.93941528 37.37231445 502.4597168 C37 505 37 505 35.88240051 506.63495827 C33.1050479 508.64898355 30.91646826 508.37770694 27.50927734 508.38095093 C26.51630425 508.38797089 26.51630425 508.38797089 25.5032711 508.39513266 C23.28062398 508.40711797 21.05858942 508.39761215 18.8359375 508.38818359 C17.24432006 508.39224775 15.65270544 508.39758874 14.06109619 508.40411377 C9.73469399 508.41781188 5.40850595 508.41247849 1.08209991 508.40297651 C-3.44087816 508.3953928 -7.96383763 508.40242193 -12.48681641 508.40713501 C-20.08304138 508.41259633 -27.67917892 508.4053911 -35.27539062 508.39111328 C-44.06356882 508.37478603 -52.85153824 508.38007428 -61.63971138 508.3965925 C-69.17862806 508.41019666 -76.7174818 508.41213227 -84.25640678 508.40427649 C-88.76189472 508.39959408 -93.26728445 508.39899068 -97.77276611 508.40888596 C-102.00811815 508.41753782 -106.24320043 508.41156649 -110.47852325 508.39420319 C-112.03499147 508.39022879 -113.5914823 508.39138864 -115.14794159 508.39799118 C-117.26869565 508.40615956 -119.38857913 508.39594349 -121.50927734 508.38095093 C-122.69725922 508.37981985 -123.88524109 508.37868877 -125.10922241 508.37752342 C-128 508 -128 508 -129.88140869 506.63396645 C-131.51761352 504.24390336 -131.3885824 502.35924797 -131.3984375 499.484375 C-131.40230469 498.39769531 -131.40617188 497.31101562 -131.41015625 496.19140625 C-131.39855469 495.05574219 -131.38695312 493.92007812 -131.375 492.75 C-131.38660156 491.62980469 -131.39820313 490.50960938 -131.41015625 489.35546875 C-131.37924953 480.62947026 -130.05923739 474.20090441 -123.90576172 467.69238281 C-116.42503227 461.0492344 -106.796516 461.49970464 -97.375 461.75 C-92.96125 461.8325 -88.5475 461.915 -84 462 C-84 451.44 -84 440.88 -84 430 C-87.96 429.34 -91.92 428.68 -96 428 C-99.45125021 427.13977848 -102.84255873 426.25089906 -106.25 425.25 C-107.15476074 424.98614502 -108.05952148 424.72229004 -108.99169922 424.45043945 C-142.82564888 414.40178627 -173.10075835 397.07427089 -198.47802734 372.47509766 C-200.00272235 370.99736149 -201.54210293 369.53605244 -203.08203125 368.07421875 C-242.59486694 330.07576833 -264.68772995 274.74882509 -266.18359375 220.38671875 C-267.14862453 163.11696693 -247.19567061 107.98514352 -208 66 C-206.52026559 64.31299782 -205.04110712 62.6254903 -203.5625 60.9375 C-185.56708317 41.0592008 -162.20580518 26.17805815 -138 15 C-137.29359375 14.6690332 -136.5871875 14.33806641 -135.859375 13.99707031 C-94.48332314 -5.16869839 -44.52442369 -10.25335133 0 0 Z M-166 78 C-166.94488281 78.82371094 -167.88976562 79.64742187 -168.86328125 80.49609375 C-174.33943687 85.36461099 -179.36772576 90.32897336 -184 96 C-184.43425293 96.5165918 -184.86850586 97.03318359 -185.31591797 97.56542969 C-215.67741856 133.69896297 -231.42209657 180.71144695 -227.77294922 227.93847656 C-226.5232929 241.6516364 -224.15855526 254.87112851 -220 268 C-219.7632959 268.75522949 -219.5265918 269.51045898 -219.28271484 270.28857422 C-213.07635545 289.59588236 -203.64030353 308.11502013 -191 324 C-190.57928223 324.53206055 -190.15856445 325.06412109 -189.72509766 325.61230469 C-174.22621066 345.05435084 -155.85717095 361.07117111 -134 373 C-133.05954834 373.51554443 -133.05954834 373.51554443 -132.10009766 374.04150391 C-90.66602074 396.44597432 -41.74253026 401.35120123 3.5078125 388.375 C32.74456959 379.60271969 58.00144969 363.96546922 80 343 C80.83015625 342.23429687 81.6603125 341.46859375 82.515625 340.6796875 C114.77336639 309.98280456 132.82835969 263.969868 134.203125 219.921875 C134.96905046 169.47259454 116.08090253 123.10894784 81.5390625 86.6015625 C78.18346033 83.1633609 74.732574 80.02099144 71 77 C70.01902344 76.18144531 69.03804688 75.36289063 68.02734375 74.51953125 C0.2166421 18.81645635 -99.94779611 19.93550448 -166 78 Z M-71 432 C-71 441.9 -71 451.8 -71 462 C-55.16 462 -39.32 462 -23 462 C-23 452.1 -23 442.2 -23 432 C-38.84 432 -54.68 432 -71 432 Z " fill="#9826AC" transform="translate(303,4)"/> <path d="M0 0 C13.23073728 10.80009047 16.67907549 27.01127425 18.65234375 43.26171875 C21.16388156 68.41206025 19.57508237 93.10212025 16.32202148 118.09423828 C15.67011596 123.22615762 15.67011596 123.22615762 17.453125 127.859375 C18.37351562 128.91705078 18.37351562 128.91705078 19.3125 129.99609375 C23.79480917 135.48556146 26.9918421 140.26324277 27.6640625 147.43359375 C27.78128662 148.63242187 27.78128662 148.63242187 27.90087891 149.85546875 C27.95421387 150.45875 28.00754883 151.06203125 28.0625 151.68359375 C54.40171647 140.0734048 79.42812961 128.21164365 101.5625 109.49609375 C102.12622314 109.02115479 102.68994629 108.54621582 103.27075195 108.05688477 C106.75149262 105.04273689 109.73361445 101.84857196 112.60620117 98.24853516 C116.35985128 94.21485583 121.1415387 92.47283609 126.5625 92.18359375 C132.86077401 92.50936654 137.27249834 94.85006622 141.6328125 99.31640625 C144.4842164 102.88283115 145.59248822 106.55259114 146.6875 110.93359375 C146.8927832 111.72008301 147.09806641 112.50657227 147.30957031 113.31689453 C155.78993287 146.85773006 154.59109088 181.00746499 143.0625 213.68359375 C142.68351562 214.8334375 142.30453125 215.98328125 141.9140625 217.16796875 C137.14376435 230.80653931 129.34494632 240.63532734 116.25390625 247.0625 C102.12792001 252.56339288 88.64547956 250.00462335 75.0625 244.68359375 C74.41845215 244.4319043 73.7744043 244.18021484 73.11083984 243.92089844 C49.84185522 234.62266131 29.3093834 221.28707101 9.34179688 206.31542969 C3.11234341 200.8403548 3.11234341 200.8403548 -4.33203125 198.98046875 C-5.19183594 199.2125 -6.05164063 199.44453125 -6.9375 199.68359375 C-15.52182324 200.22863015 -22.86883736 199.66234361 -30.9375 196.68359375 C-30.99663574 197.45743408 -31.05577148 198.23127441 -31.11669922 199.02856445 C-31.19936035 200.10710693 -31.28202148 201.18564941 -31.3671875 202.296875 C-31.45838867 203.48877441 -31.54958984 204.68067383 -31.64355469 205.90869141 C-31.83154138 208.32285276 -32.02442572 210.73664094 -32.22363281 213.14990234 C-34.5140689 240.96964923 -35.2120627 268.55899412 -26.56176758 295.44482422 C-25.13424842 300.56424177 -25.37757123 304.98014441 -27.5625 309.87109375 C-30.57269157 315.19118926 -34.34178997 318.51074513 -40.25 320.24609375 C-63.04179559 323.78392471 -93.45352603 305.62015528 -111.046875 292.8671875 C-112.47773438 291.78630859 -112.47773438 291.78630859 -113.9375 290.68359375 C-114.80890625 290.03519531 -115.6803125 289.38679688 -116.578125 288.71875 C-133.2772452 275.69443619 -151.48721806 258.85557833 -156.6875 237.62109375 C-157.72902778 225.38314235 -155.80712207 213.22668254 -148.1015625 203.32421875 C-128.45181023 180.48226846 -99.89859622 166.59601901 -72.96875 154.34765625 C-71.95409668 153.88560791 -70.93944336 153.42355957 -69.89404297 152.94750977 C-67.09952408 151.75285871 -64.29079587 150.78643529 -61.4140625 149.8125 C-57.9749039 148.45701001 -56.27968389 147.3695152 -54.4921875 144.109375 C-53.90258791 142.7507898 -53.34320318 141.378749 -52.8125 139.99609375 C-49.81757774 133.13454628 -46.40174954 127.91532203 -40.9375 122.68359375 C-52.47757954 113.52245506 -64.31066947 105.27605513 -76.9375 97.68359375 C-77.62166992 97.2659375 -78.30583984 96.84828125 -79.01074219 96.41796875 C-93.35270566 87.70959073 -108.69141324 81.30272625 -125.02685547 77.40527344 C-131.97450622 75.68174971 -136.73466905 72.59868916 -140.9375 66.68359375 C-143.18518394 62.18822587 -142.50490367 56.54865892 -141.9375 51.68359375 C-140.52784532 48.10652535 -138.49338566 45.53202054 -135.9375 42.68359375 C-135.23367187 41.89597656 -134.52984375 41.10835937 -133.8046875 40.296875 C-113.09954259 18.53255601 -85.79352354 3.39240169 -56.9375 -4.31640625 C-56.15906738 -4.52668457 -55.38063477 -4.73696289 -54.57861328 -4.95361328 C-35.83908644 -9.8589029 -16.50417586 -11.81816879 0 0 Z " fill="#010001" transform="translate(269.9375,61.31640625)"/> <path d="M0 0 C1.02754395 0.23605957 2.05508789 0.47211914 3.11376953 0.71533203 C39.07358876 9.30250364 71.49258689 26.39567695 99 51 C99.56235352 51.50063965 100.12470703 52.0012793 100.70410156 52.51708984 C107.21081017 58.33590469 113.49322063 64.20637324 119 71 C119.89958842 72.07564728 120.79934383 73.1511549 121.69921875 74.2265625 C148.7967781 106.96006084 166.75968946 147.54182563 171 190 C171.16435547 191.44439453 171.16435547 191.44439453 171.33203125 192.91796875 C176.55084675 246.70656052 161.52810991 304.5869146 127.47265625 347.0078125 C126.24869141 348.48894531 126.24869141 348.48894531 125 350 C123.76056641 351.54300781 123.76056641 351.54300781 122.49609375 353.1171875 C111.67016745 366.42490634 99.51444637 378.59010317 85.68261719 388.75732422 C84.03422918 389.97472047 82.41121934 391.22061277 80.7890625 392.47265625 C57.47499913 410.14447142 20.08575833 430 -10 430 C-10 440.56 -10 451.12 -10 462 C-1.23507541 461.84281712 -1.23507541 461.84281712 7.52880859 461.63964844 C16.2214698 461.56155179 23.46706226 462.41142429 30.4375 467.9296875 C30.953125 468.57164062 31.46875 469.21359375 32 469.875 C32.53625 470.51179688 33.0725 471.14859375 33.625 471.8046875 C37.73130072 478.3607699 37.33380062 485.22802294 37.3125 492.6875 C37.32861328 493.82767578 37.34472656 494.96785156 37.36132812 496.14257812 C37.36197266 497.23376953 37.36261719 498.32496094 37.36328125 499.44921875 C37.36775269 500.93941528 37.36775269 500.93941528 37.37231445 502.4597168 C37 505 37 505 35.88240051 506.63495827 C33.1050479 508.64898355 30.91646826 508.37770694 27.50927734 508.38095093 C26.51630425 508.38797089 26.51630425 508.38797089 25.5032711 508.39513266 C23.28062398 508.40711797 21.05858942 508.39761215 18.8359375 508.38818359 C17.24432006 508.39224775 15.65270544 508.39758874 14.06109619 508.40411377 C9.73469399 508.41781188 5.40850595 508.41247849 1.08209991 508.40297651 C-3.44087816 508.3953928 -7.96383763 508.40242193 -12.48681641 508.40713501 C-20.08304138 508.41259633 -27.67917892 508.4053911 -35.27539062 508.39111328 C-44.06356882 508.37478603 -52.85153824 508.38007428 -61.63971138 508.3965925 C-69.17862806 508.41019666 -76.7174818 508.41213227 -84.25640678 508.40427649 C-88.76189472 508.39959408 -93.26728445 508.39899068 -97.77276611 508.40888596 C-102.00811815 508.41753782 -106.24320043 508.41156649 -110.47852325 508.39420319 C-112.03499147 508.39022879 -113.5914823 508.39138864 -115.14794159 508.39799118 C-117.26869565 508.40615956 -119.38857913 508.39594349 -121.50927734 508.38095093 C-122.69725922 508.37981985 -123.88524109 508.37868877 -125.10922241 508.37752342 C-128 508 -128 508 -129.88140869 506.63396645 C-131.51761352 504.24390336 -131.3885824 502.35924797 -131.3984375 499.484375 C-131.40230469 498.39769531 -131.40617188 497.31101562 -131.41015625 496.19140625 C-131.39855469 495.05574219 -131.38695312 493.92007812 -131.375 492.75 C-131.38660156 491.62980469 -131.39820313 490.50960938 -131.41015625 489.35546875 C-131.37924953 480.62947026 -130.05923739 474.20090441 -123.90576172 467.69238281 C-116.42503227 461.0492344 -106.796516 461.49970464 -97.375 461.75 C-92.96125 461.8325 -88.5475 461.915 -84 462 C-84 451.44 -84 440.88 -84 430 C-87.96 429.34 -91.92 428.68 -96 428 C-99.45125021 427.13977848 -102.84255873 426.25089906 -106.25 425.25 C-107.15476074 424.98614502 -108.05952148 424.72229004 -108.99169922 424.45043945 C-142.82564888 414.40178627 -173.10075835 397.07427089 -198.47802734 372.47509766 C-200.00272235 370.99736149 -201.54210293 369.53605244 -203.08203125 368.07421875 C-242.59486694 330.07576833 -264.68772995 274.74882509 -266.18359375 220.38671875 C-267.14862453 163.11696693 -247.19567061 107.98514352 -208 66 C-206.52026559 64.31299782 -205.04110712 62.6254903 -203.5625 60.9375 C-185.56708317 41.0592008 -162.20580518 26.17805815 -138 15 C-137.29359375 14.6690332 -136.5871875 14.33806641 -135.859375 13.99707031 C-94.48332314 -5.16869839 -44.52442369 -10.25335133 0 0 Z M-146 33 C-146.5966748 33.31163086 -147.19334961 33.62326172 -147.80810547 33.94433594 C-171.29234536 46.3251486 -192.79486929 65.08753583 -209 86 C-209.42394043 86.54221191 -209.84788086 87.08442383 -210.28466797 87.64306641 C-228.53780363 111.1380598 -241.13643067 137.67980728 -248.25 166.5 C-248.49637207 167.48355469 -248.74274414 168.46710938 -248.99658203 169.48046875 C-252.41550652 183.94060548 -253.38355494 198.43555718 -253.3125 213.25 C-253.31134186 214.00703217 -253.31018372 214.76406433 -253.30899048 215.54403687 C-253.27176768 227.91126942 -252.4055065 239.84646478 -250 252 C-249.7834375 253.21171875 -249.566875 254.4234375 -249.34375 255.671875 C-246.07594238 272.5555477 -240.53875726 288.57740153 -233 304 C-232.62359375 304.77730469 -232.2471875 305.55460937 -231.859375 306.35546875 C-208.58133081 353.92027238 -166.02201805 391.81925335 -115.98681641 409.26391602 C-105.48334894 412.80325328 -94.90514311 415.96226836 -84 418 C-83.1450293 418.17515137 -82.29005859 418.35030273 -81.40917969 418.53076172 C-70.54231659 420.51411462 -59.6377648 420.3958431 -48.625 420.375 C-47.08614639 420.37468277 -47.08614639 420.37468277 -45.51620483 420.37435913 C-30.58790019 420.34357792 -16.52198066 419.7066381 -2 416 C-0.375604 415.63144231 1.24940377 415.26557102 2.875 414.90234375 C20.5228004 410.78570966 37.05330008 403.49275191 53 395 C54.15628906 394.39800781 55.31257813 393.79601562 56.50390625 393.17578125 C70.50960098 385.57542131 83.0599993 375.52138599 94.49023438 364.45849609 C95.53992676 363.44444979 96.59645043 362.43744678 97.65820312 361.43603516 C124.1074885 336.47023563 141.59736573 304.65954139 152 270 C152.48726563 268.47246094 152.48726563 268.47246094 152.984375 266.9140625 C155.61887791 258.1771906 156.75645248 249.02151246 158 240 C158.09861328 239.34 158.19722656 238.68 158.29882812 238 C159.34664294 230.13008155 159.24383144 222.17524208 159.25 214.25 C159.25067474 213.47066101 159.25134949 212.69132202 159.25204468 211.8883667 C159.2348545 199.36395889 158.55504339 187.29412096 156 175 C155.82839355 174.14341797 155.65678711 173.28683594 155.47998047 172.40429688 C144.47307006 118.61896522 111.60904735 71.32826678 66 41 C53.07394961 32.81516501 39.72821695 26.01181818 25.33056641 20.83789062 C23.09983841 20.03589414 20.88450581 19.19962426 18.66796875 18.359375 C1.74492471 12.14558037 -16.96858533 8.2902441 -35 8 C-35.90137695 7.97035156 -36.80275391 7.94070313 -37.73144531 7.91015625 C-76.39428918 6.68780899 -111.89830138 14.99152993 -146 33 Z M-71 432 C-71 441.9 -71 451.8 -71 462 C-55.16 462 -39.32 462 -23 462 C-23 452.1 -23 442.2 -23 432 C-38.84 432 -54.68 432 -71 432 Z " fill="#010001" transform="translate(303,4)"/> <path d="M0 0 C1.05815918 0.31493408 1.05815918 0.31493408 2.13769531 0.63623047 C34.89712097 10.58544289 61.87990523 27.87990523 86 52 C86.67160156 52.62519531 87.34320313 53.25039062 88.03515625 53.89453125 C98.95394163 64.22424921 107.5856661 76.99107743 115 90 C115.35658691 90.61891113 115.71317383 91.23782227 116.08056641 91.87548828 C132.45519797 120.54351467 140.45217513 152.21529267 140.4375 185.125 C140.43790283 186.05141296 140.43830566 186.97782593 140.4387207 187.93231201 C140.36381461 217.92380752 133.76364805 246.23565557 120 273 C119.40176485 274.21455878 118.80412018 275.42940856 118.20703125 276.64453125 C97.2027306 318.52116836 59.32250815 350.13047806 16.16015625 367.14501953 C14.28582072 367.8868734 12.4229953 368.65768264 10.5625 369.43359375 C-0.85171961 373.92374632 -12.96160307 375.89628149 -25 378 C-26.15749756 378.20351074 -26.15749756 378.20351074 -27.33837891 378.41113281 C-74.76207039 386.40705325 -126.01469646 372.12586801 -164.94238281 344.62792969 C-173.87276109 338.07772626 -182.00178594 330.64153695 -190 323 C-190.72703125 322.32582031 -191.4540625 321.65164063 -192.203125 320.95703125 C-224.02451944 290.62322232 -245.00260056 242.65390859 -246.12792969 198.83935547 C-246.20482807 194.86747342 -246.23085128 190.89614973 -246.24023438 186.92358398 C-246.24988694 184.46628252 -246.28098288 182.00983897 -246.3125 179.55273438 C-246.41256896 164.6892819 -244.33179753 150.44409878 -240.3125 136.125 C-240.05758789 135.21065186 -239.80267578 134.29630371 -239.54003906 133.35424805 C-231.38729569 105.08020286 -217.1240369 80.24559639 -198 58 C-197.32324219 57.20078125 -196.64648438 56.4015625 -195.94921875 55.578125 C-191.63062454 50.58029558 -187.052981 46.23936541 -182 42 C-181.05382812 41.16597656 -180.10765625 40.33195312 -179.1328125 39.47265625 C-157.08832697 20.1424496 -130.51579167 5.97192263 -102 -1 C-100.96842773 -1.25475098 -100.96842773 -1.25475098 -99.91601562 -1.51464844 C-67.06044142 -9.53280048 -32.55343875 -9.70849977 0 0 Z M-172 50 C-172.94488281 50.82371094 -173.88976562 51.64742187 -174.86328125 52.49609375 C-180.33943687 57.36461099 -185.36772576 62.32897336 -190 68 C-190.43425293 68.5165918 -190.86850586 69.03318359 -191.31591797 69.56542969 C-221.67741856 105.69896297 -237.42209657 152.71144695 -233.77294922 199.93847656 C-232.5232929 213.6516364 -230.15855526 226.87112851 -226 240 C-225.7632959 240.75522949 -225.5265918 241.51045898 -225.28271484 242.28857422 C-219.07635545 261.59588236 -209.64030353 280.11502013 -197 296 C-196.57928223 296.53206055 -196.15856445 297.06412109 -195.72509766 297.61230469 C-180.22621066 317.05435084 -161.85717095 333.07117111 -140 345 C-139.05954834 345.51554443 -139.05954834 345.51554443 -138.10009766 346.04150391 C-96.66602074 368.44597432 -47.74253026 373.35120123 -2.4921875 360.375 C26.74456959 351.60271969 52.00144969 335.96546922 74 315 C74.83015625 314.23429687 75.6603125 313.46859375 76.515625 312.6796875 C108.77336639 281.98280456 126.82835969 235.969868 128.203125 191.921875 C128.96905046 141.47259454 110.08090253 95.10894784 75.5390625 58.6015625 C72.18346033 55.1633609 68.732574 52.02099144 65 49 C64.01902344 48.18144531 63.03804688 47.36289063 62.02734375 46.51953125 C-5.7833579 -9.18354365 -105.94779611 -8.06449552 -172 50 Z " fill="#010001" transform="translate(309,32)"/> <path d="M0 0 C0.15855469 0.60585937 0.31710938 1.21171875 0.48046875 1.8359375 C3.60463191 13.50316444 3.60463191 13.50316444 11.26953125 22.24609375 C13.78121534 24.69404912 13.9948901 25.84087614 14.10961914 29.41357422 C13.82342785 33.09119449 13.29812373 36.73317443 12.74172974 40.37850952 C12.11530071 44.53612786 11.61423901 48.70849716 11.11328125 52.8828125 C10.95855598 54.15662025 10.95855598 54.15662025 10.80070496 55.4561615 C7.88659345 80.47231873 7.87100612 109.2793171 16.23046875 133.16796875 C17.29984801 137.10350156 17.95620378 141.25633428 15.9375 144.9375 C11.48051738 147.38165176 6.03422331 145.98480664 1.35693359 144.68066406 C0.68227051 144.47666992 0.00760742 144.27267578 -0.6875 144.0625 C-1.77683838 143.73523926 -1.77683838 143.73523926 -2.88818359 143.40136719 C-35.75736093 133.04656593 -68.25586375 111.03231925 -86 81 C-89.00966561 73.53157052 -89.39917031 65.44223273 -86.97265625 57.73828125 C-73.54224821 28.68246774 -32.73428674 12.8907108 -5 1 C-2 0 -2 0 0 0 Z " fill="#9B26AE" transform="translate(214,223)"/> <path d="M0 0 C11.7637987 9.4727218 13.8821409 24.18842074 15.52285767 38.42935181 C16.14553668 45.258816 16.00467156 52.14159622 15.9609375 58.9921875 C15.95850037 59.82413635 15.95606323 60.65608521 15.95355225 61.51324463 C15.84460507 93.24277519 15.84460507 93.24277519 11.7109375 108.4921875 C11.16308594 108.3478125 10.61523438 108.2034375 10.05078125 108.0546875 C1.69742729 106.09878023 -7.96499909 105.02395352 -16.3203125 107.328125 C-20.0221263 107.53269892 -21.48048251 106.27891555 -24.234375 103.9230957 C-25.12769531 103.12198364 -25.12769531 103.12198364 -26.0390625 102.3046875 C-50.73434695 81.38745924 -83.03532906 62.24024056 -114.9140625 55.4921875 C-118.2890625 54.4921875 -118.2890625 54.4921875 -120.3515625 52.7421875 C-121.68140024 49.55057693 -121.20188171 47.81630346 -120.2890625 44.4921875 C-118.60719229 42.36260402 -117.05615332 40.64161374 -115.1015625 38.8046875 C-114.30286743 38.03366699 -114.30286743 38.03366699 -113.48803711 37.24707031 C-90.00567453 15.00098005 -32.88416113 -21.66089794 0 0 Z " fill="#9B26AE" transform="translate(261.2890625,70.5078125)"/> <path d="M0 0 C3.3125 0.6875 3.3125 0.6875 4.890625 2.28125 C6.72539907 5.38625226 7.4948326 8.3792744 8.375 11.875 C8.54491455 12.5448291 8.7148291 13.2146582 8.88989258 13.90478516 C9.37429067 15.82981991 9.8437917 17.75858506 10.3125 19.6875 C10.53164063 20.56792969 10.75078125 21.44835937 10.9765625 22.35546875 C13.06323154 31.15373748 13.48184193 39.85630242 13.4375 48.875 C13.43339111 49.88949219 13.42928223 50.90398437 13.42504883 51.94921875 C13.29655236 69.28104319 11.08191792 85.05433519 5.5 101.5 C5.0213147 102.93170532 5.0213147 102.93170532 4.53295898 104.39233398 C0.49876637 115.86217534 -4.67945396 125.26249493 -15.9140625 130.78125 C-24.98598655 134.24332702 -33.62383349 132.95688805 -42.5625 129.8125 C-43.91770752 129.34493286 -43.91770752 129.34493286 -45.30029297 128.86791992 C-71.14909089 119.62336895 -94.36117119 103.7259955 -115.6875 86.6875 C-115.30078125 86.24019531 -114.9140625 85.79289062 -114.515625 85.33203125 C-113.42953211 84.07119569 -112.34773735 82.80664906 -111.26953125 81.5390625 C-110.0712938 80.13668089 -108.85277475 78.75159593 -107.625 77.375 C-104.61237377 73.19619588 -101.09690083 67.88552773 -100.43237305 62.69458008 C-99.6875 60.6875 -99.6875 60.6875 -97.54882812 59.35058594 C-96.61490234 58.96161133 -95.68097656 58.57263672 -94.71875 58.171875 C-93.68145752 57.7298877 -92.64416504 57.28790039 -91.57543945 56.83251953 C-89.89840942 56.14198486 -89.89840942 56.14198486 -88.1875 55.4375 C-85.87835908 54.45180166 -83.56976573 53.4648196 -81.26171875 52.4765625 C-80.13040527 51.99735352 -78.9990918 51.51814453 -77.83349609 51.02441406 C-58.64872215 42.87170398 -39.81900121 33.01059223 -23.6875 19.6875 C-23.11032227 19.21425293 -22.53314453 18.74100586 -21.93847656 18.25341797 C-20.0534742 16.70097614 -18.18048255 15.13537065 -16.3125 13.5625 C-15.74080078 13.08353271 -15.16910156 12.60456543 -14.58007812 12.11108398 C-11.00622671 9.04052554 -8.00796661 5.81223834 -5.12719727 2.0793457 C-3.6875 0.6875 -3.6875 0.6875 0 0 Z " fill="#9B26AF" transform="translate(396.6875,166.3125)"/> <path d="M0 0 C1.09211288 -0.00990463 2.18422577 -0.01980927 3.30943298 -0.03001404 C4.50279266 -0.02551239 5.69615234 -0.02101074 6.92567444 -0.01637268 C8.81644966 -0.02666756 8.81644966 -0.02666756 10.74542236 -0.03717041 C14.20003024 -0.05511299 17.65438428 -0.05393142 21.10902476 -0.04822803 C23.99423888 -0.04513759 26.87940414 -0.05122703 29.7646113 -0.05726677 C36.57192109 -0.07131412 43.37910538 -0.06974915 50.18641663 -0.05836487 C57.20634885 -0.04688434 64.22589901 -0.06095742 71.24578089 -0.08776134 C77.27564112 -0.10992201 83.30538146 -0.1165549 89.33527952 -0.11068493 C92.93543462 -0.10731486 96.53534482 -0.10973335 100.13546562 -0.12693596 C104.15041655 -0.14528341 108.16462469 -0.13121445 112.17958069 -0.11402893 C113.96658386 -0.12853088 113.96658386 -0.12853088 115.78968811 -0.14332581 C123.80503198 -0.071336 123.80503198 -0.071336 127.76968384 2.16903687 C133.24408712 8.74268813 131.61732483 11.46387167 131.61732483 21.38768005 C84.09732483 21.38768005 36.57732483 21.38768005 -12.38267517 21.38768005 C-12.38267517 8.38768005 -12.38267517 8.38768005 -9.38267517 3.38768005 C-6.32640205 0.43511547 -4.19649469 0.01075089 0 0 Z " fill="#9B26AF" transform="translate(196.38267517089844,478.61231994628906)"/> <path d="M0 0 C6.82845779 5.29950519 11.08660015 12.57147003 12.31640625 21.1328125 C12.6166477 30.33020883 10.68335563 37.20096161 5.68359375 44.84765625 C-2.66847601 52.83659254 -10.29056996 54.97274117 -21.57421875 54.87890625 C-29.39427629 54.27086722 -35.74574172 51.16996414 -41.19140625 45.59765625 C-47.64840038 36.91039116 -49.47276891 28.36339073 -48.19140625 17.59765625 C-45.11882867 7.96196258 -39.59364855 1.77544584 -31.00390625 -3.27734375 C-20.35169841 -7.53822689 -9.53869662 -6.10408571 0 0 Z " fill="#9A26AE" transform="translate(274.19140625,193.40234375)"/> </svg> 
